HIERARCHY
ROOT hip
{
  OFFSET 0.0 0.0 0.0
  CHANNELS 6 Xposition Yposition Zposition Zrotation Yrotation Xrotation
  JOINT torso
  {
    OFFSET 0.0 0.0 0.0
    CHANNELS 3 Zrotation Xrotation Yrotation
    JOINT neck
    {
      OFFSET -31.42098999999993 328.8025209999999 74.3554680000002
      CHANNELS 3 Zrotation Xrotation Yrotation
      JOINT head
      {
        OFFSET 3.3519900000001144 303.81732099999994 206.53942900000015
        CHANNELS 3 Zrotation Xrotation Yrotation
        End Site
        {
          OFFSET 0.0 0.0 0.0
        }
      }
    }
    JOINT left_collar
    {
      OFFSET -31.42098999999993 328.8025209999999 74.3554680000002
      CHANNELS 3 Zrotation Xrotation Yrotation
      JOINT left_upper_arm
      {
        OFFSET -124.490479 -8.162841999999841 8.226441000000023
        CHANNELS 3 Zrotation Xrotation Yrotation
        JOINT left_forearm
        {
          OFFSET -253.595764 -1.5758060000000569 105.0729980000001
          CHANNELS 3 Zrotation Xrotation Yrotation
          JOINT left_hand
          {
            OFFSET -269.48803699999996 0.1478270000000066 -55.346191999999974
            CHANNELS 3 Zrotation Xrotation Yrotation
            End Site
            {
              OFFSET 0.0 0.0 0.0
            }
          }
        }
      }
    }
    JOINT right_collar
    {
      OFFSET -31.42098999999993 328.8025209999999 74.3554680000002
      CHANNELS 3 Zrotation Xrotation Yrotation
      JOINT right_upper_arm
      {
        OFFSET 162.02484099999998 0.46441600000002836 2.2303470000001653
        CHANNELS 3 Zrotation Xrotation Yrotation
        JOINT right_forearm
        {
          OFFSET 240.01246700000004 -25.835875999999985 121.34179699999959
          CHANNELS 3 Zrotation Xrotation Yrotation
          JOINT right_hand
          {
            OFFSET 252.48539699999992 18.910399999999868 -67.53466800000001
            CHANNELS 3 Zrotation Xrotation Yrotation
            End Site
            {
              OFFSET 0.0 0.0 0.0
            }
          }
        }
      }
    }
  }
}
MOTION
Frames: 13
Frame Time: 0.01
-470.02335394057883 211.63883208781664 574.5923435909596 5.735049527258995 0.5035175376481085 -14.447862327550892 -0.26982692784417317 -1.2354222624635085 -0.053992090608666915 -3.271598472312428 -6.6939878183498935 2.3951729308014515 0.0 0.0 0.0 5.211659615184786 -0.43274022636297066 6.993600374922255 38.748463527502125 8.122618368915285 21.878234176084923 43.76551993374451 -3.1605214920300977 -15.371760768662707 0.0 0.0 0.0 2.472596086822739 -0.17145557882607249 5.6112061052527595 -25.579508400791592 5.7347797688495445 -20.74941449453135 -17.873224161413926 1.1136473383383876 66.10264350775462 0.0 0.0 0.0
-470.34273086019084 211.60840596608975 574.440132570095 5.78427819376404 0.4629289558642196 -14.360301954896473 -0.26294389442508376 -1.2195151007426994 -0.05414066656929834 -3.2525140637848517 -6.716635800499372 2.3821609902219527 0.0 0.0 0.0 5.210635402191307 -0.43300738789507326 6.995961062949862 38.725644569567315 8.138818926730021 21.820382702643386 43.68733424591225 -3.1559873232054265 -15.367583681863332 0.0 0.0 0.0 2.471573202831345 -0.17149323662129906 5.615361183153064 -25.62976818808647 5.75705000127731 -20.731926545693913 -17.78885975456782 1.0897141217196595 66.14421944920831 0.0 0.0 0.0
-470.6592845994129 211.57536038487854 574.2856366792435 5.832529828605486 0.420485008132687 -14.26404316015202 -0.2571231434178325 -1.2037758180059983 -0.054052178107022356 -3.2342745035346434 -6.737079854504247 2.3696923292675987 0.0 0.0 0.0 5.210192230698073 -0.43344145435909753 6.999848760997518 38.70762823231848 8.156056809314457 21.762664245492434 43.611432294376606 -3.151118866121184 -15.364684623138649 0.0 0.0 0.0 2.471241268591758 -0.17154625270238036 5.618373096276917 -25.675332767109754 5.77689655165917 -20.71711526323103 -17.70798719005018 1.066830621109259 66.18533857518419 0.0 0.0 0.0
-470.97421228312663 211.54039870701055 574.1282554116044 5.879910148876856 0.3763699946964118 -14.159427100369824 -0.2527261675444971 -1.188303671149883 -0.05365100028290379 -3.216932064355744 -6.755425232025549 2.3578074374088884 0.0 0.0 0.0 5.210366681400654 -0.43409111238942066 7.005702778403294 38.69413787349581 8.17425448083972 21.705137152120216 43.538671821493175 -3.1459932910876116 -15.363048181789392 0.0 0.0 0.0 2.4716281167337377 -0.17162512092084956 5.620595521468639 -25.716232087958186 5.79431390915409 -20.705003066381632 -17.630216043022322 1.0448776046299162 66.22605907559576 0.0 0.0 0.0
-471.28852182773454 211.50424700430992 573.9672648739406 5.926471779190828 0.3308085202478521 -14.046791756383044 -0.2500595255452973 -1.1731932589878686 -0.05287421643048497 -3.200506175189268 -6.77183282766272 2.346524723232639 0.0 0.0 0.0 5.211183077213394 -0.43500113745875396 7.013926107964972 38.68483130610285 8.19330589771235 21.647894146940224 43.469951600095875 -3.140684718528818 -15.362673901826989 0.0 0.0 0.0 2.4727445157607444 -0.17173928351292225 5.622384137712785 -25.752560702189047 5.809298616222157 -20.69566883610807 -17.55511118174044 1.0237186163168885 66.26642190033998 0.0 0.0 0.0
-471.6030009627745 211.4676184553495 573.8018237431492 5.972206798442934 0.2840633045356858 -13.926456432403572 -0.24936202766076998 -1.1585342324486596 -0.051674557382080114 -3.1849818585570957 -6.786516697541403 2.335839314462555 0.0 0.0 0.0 5.212652548979049 -0.436210322210633 7.024866537951014 38.67931197965545 8.213078017813084 21.591064672057488 43.40618139022363 -3.1352641233524157 -15.363570429258719 0.0 0.0 0.0 2.4745820711298 -0.17189662148476675 5.6240804423949005 -25.784473817480798 5.821849791951197 -20.6892426219728 -17.482197593811343 1.0032015071629414 66.30644993528303 0.0 0.0 0.0
-471.9181877407984 211.43118316188622 573.63098315062 6.017042538799323 0.23643143224549287 -13.798706600913617 -0.2507948285911748 -1.1444105645517897 -0.05002260458686662 -3.1703088012985043 -6.799740527063138 2.325722291224349 0.0 0.0 0.0 5.214772067531807 -0.43774938814628356 7.03879768891721 38.677141116919195 8.233413007023422 21.534816010306827 43.34825020434313 -3.129799980459353 -15.365747403940219 0.0 0.0 0.0 2.477111169300119 -0.17210293063043286 5.625994915751531 -25.81218237991562 5.831969982012205 -20.685898554768034 -17.410967462252266 0.9831607486280876 66.34614747856756 0.0 0.0 0.0
-472.23434480311414 211.39554470251025 573.4536996567598 6.060841047705586 0.18823904695517454 -13.663779550989386 -0.25443511244323086 -1.1308993246784502 -0.04790809602840937 -3.1564010453962306 -6.811813052588464 2.316120342611445 0.0 0.0 0.0 5.217523431122196 -0.43963895198340325 7.055900655515266 38.677850499537406 8.254131103654984 21.47935313426318 43.296994316854615 -3.124359528208208 -15.369205697915755 0.0 0.0 0.0 2.4802792251482426 -0.1723614100896263 5.628390128959044 -25.835947355314033 5.839666259230571 -20.685846327787896 -17.34088943745776 0.9634205296360954 66.38550015511983 0.0 0.0 0.0
-472.5514396102742 211.36122428778887 573.2688504984077 6.103402362102738 0.13983466102322525 -13.521851445151976 -0.26027382581188413 -1.1180690085179246 -0.045340238318361266 -3.143137333240828 -6.823082476269025 2.306955870489538 0.0 0.0 0.0 5.220872242707743 -0.44188764175874035 7.076247143513775 38.680955645354686 8.275034093900281 21.424917276186015 43.25316639832294 -3.119010464306177 -15.373926770036206 0.0 0.0 0.0 2.484009516519216 -0.17267219749482052 5.631464607107962 -25.8560733509093 5.844951473750136 -20.68932164624866 -17.271419898172816 0.9437985868410758 66.42447540871999 0.0 0.0 0.0
-472.869132575448 211.32865289863327 573.0752503742247 6.144471446450986 0.09158142130890534 -13.373026545775613 -0.2682176320404447 -1.1059775803555105 -0.042347004951972106 -3.1303622027013853 -6.8339299515878364 2.29812760819919 0.0 0.0 0.0 5.224766975904051 -0.4444904821856684 7.09978520325147 38.6859691414464 8.29590934407528 21.371783244157182 43.21740702960795 -3.1138228607915486 -15.379861972056949 0.0 0.0 0.0 2.488200871880241 -0.17303199026161864 5.635338481547342 -25.872901685270037 5.847845528918313 -20.696576075757797 -17.202015792793247 0.9241106465221496 66.46302367823523 0.0 0.0 0.0
-473.1867746097952 211.29817131684473 572.8716691371076 6.183748343705635 0.04384880116092018 -13.217329480472234 -0.27809494894076336 -1.0946704602777757 -0.038973480329323934 -3.1178879800637023 -6.844762250127351 2.289511859720021 0.0 0.0 0.0 5.229138295922228 -0.4474276868448053 7.126328807497235 38.692413888322776 8.316534325729346 21.32025552420223 43.19021967611495 -3.1088710936958575 -15.38692259734283 0.0 0.0 0.0 2.4927284319497844 -0.17343379557533672 5.640042124270382 -25.886803001450552 5.848376547668739 -20.707866742220684 -17.132148439841583 0.9041752772665358 66.50108029509101 0.0 0.0 0.0
-473.5034150697975 211.2700375237753 572.656849847779 6.220900812640768 -0.002995755260123013 -13.054701407269206 -0.2896656201447582 -1.0841787122351236 -0.03527938340045716 -3.1054978407983396 -6.856003737762255 2.2809644807878695 0.0 0.0 0.0 5.233898849484166 -0.45066399799069307 7.15555252709044 38.69983597846276 8.33668155554275 21.270663216318408 43.17195000496085 -3.1042356187451214 -15.394971335918624 0.0 0.0 0.0 2.4974456429868175 -0.1738668505134976 5.645508968542847 -25.898169530825037 5.846581798740939 -20.723446338807218 -17.061317505434058 0.8838188885551658 66.53856805542188 0.0 0.0 0.0
-473.8178205458698 211.2444405676864 572.429526689234 6.25557851739721 -0.04859474648680396 -12.885000776134193 -0.3026334967257347 -1.0745176524903048 -0.03133596378041104 -3.0929500864989765 -6.868087790553466 2.2723237083917307 0.0 0.0 0.0 5.238943747270331 -0.4541486978738729 7.186992376372029 38.70781688858685 8.356123854063016 21.223353860263646 43.16277023214666 -3.1000044716274706 -15.403815631017778 0.0 0.0 0.0 2.5021875557903726 -0.17431674682477966 5.651573539688581 -25.907407134215674 5.842508268563441 -20.74355387391515 -16.98906431875454 0.8628805827129331 66.57540035932027 0.0 0.0 0.0
